<svg xmlns="http://www.w3.org/2000/svg" viewBox="0 0 512 512">
  <!-- 背景 -->
  <rect width="512" height="512" rx="100" fill="#0f1423"/>
  <!-- Indigo グロー -->
  <circle cx="150" cy="150" r="180" fill="#4f46e5" opacity="0.12"/>
  <!-- Amber グロー -->
  <circle cx="380" cy="380" r="140" fill="#f59e0b" opacity="0.07"/>

  <!-- 月 (crescent) -->
  <path
    d="M280 120
       C220 120 170 170 170 230
       C170 290 220 340 280 340
       C310 340 337 328 356 308
       C330 316 302 312 280 296
       C244 272 228 232 240 196
       C252 160 284 140 316 140
       C304 128 292 120 280 120Z"
    fill="#fcd34d"
    opacity="0.92"
  />
  <!-- 雲1 -->
  <ellipse cx="340" cy="300" rx="32" ry="18" fill="#fef3c7" opacity="0.55"/>
  <ellipse cx="320" cy="308" rx="24" ry="16" fill="#fef3c7" opacity="0.55"/>
  <ellipse cx="360" cy="308" rx="20" ry="14" fill="#fef3c7" opacity="0.45"/>

  <!-- 星屑 -->
  <circle cx="380" cy="140" r="4" fill="#fef3c7" opacity="0.6"/>
  <circle cx="150" cy="320" r="3" fill="#fef3c7" opacity="0.4"/>
  <circle cx="400" cy="230" r="2.5" fill="#fef3c7" opacity="0.5"/>
  <circle cx="180" cy="180" r="2" fill="#fef3c7" opacity="0.35"/>
  <circle cx="430" cy="170" r="1.5" fill="#fef3c7" opacity="0.45"/>
</svg>
